<?xml version="1.0" encoding="utf-8"?>
<!-- Generator: Adobe Illustrator 20.1.0, SVG Export Plug-In . SVG Version: 6.00 Build 0)  -->
<svg version="1.1" id="Layer_1" xmlns="http://www.w3.org/2000/svg" xmlns:xlink="http://www.w3.org/1999/xlink" x="0px" y="0px"
	 viewBox="0 0 960 960" style="enable-background:new 0 0 960 960;" xml:space="preserve">
<style type="text/css">
	.st0{fill:none;}
</style>
<rect x="803.7" y="252.4" transform="matrix(0.8669 -0.4985 0.4985 0.8669 -18.7331 460.6466)" width="99" height="26"/>
<rect x="57.3" y="681.6" transform="matrix(0.8669 -0.4985 0.4985 0.8669 -332.0417 145.6973)" width="99" height="26"/>
<circle cx="480.2" cy="478.3" r="31.9"/>
<g>
	<rect x="469" y="0.9" width="25.9" height="98.9"/>
	<rect x="469" y="860.8" width="25.9" height="98.9"/>
	<rect x="861.4" y="466.9" width="98.6" height="26"/>
	<rect x="0.3" y="467.7" width="98.6" height="26"/>
	<polygon points="803.8,279.8 889.2,230.5 902.1,253 816.7,302.3 	"/>
	<polygon points="60.4,708.4 145.8,659.2 158.8,681.7 73.3,731 	"/>
	<polygon points="231.6,72.1 254.1,59.1 303.4,144.7 281,157.7 	"/>
	<polygon points="660.5,816.7 682.9,803.7 732.2,889.3 709.8,902.3 	"/>
	<polygon points="662.6,144.7 712.3,59.3 734.7,72.4 685,157.8 	"/>
	<polygon points="230.6,887.5 280.2,802.1 302.6,815.2 252.9,900.6 	"/>
	<polygon points="61.8,252.4 74.7,229.9 160.1,279.4 147.1,301.9 	"/>
	<polygon points="804.2,682.9 817.2,660.4 902.5,709.9 889.6,732.4 	"/>
</g>
<rect x="475.6" y="123.6" width="9" height="354.7"/>
<rect x="0.3" y="0" class="st0" width="959.7" height="959.7"/>
<rect x="472.5" y="194" width="15.2" height="284.3"/>
<rect x="465.1" y="248.7" width="30.2" height="229.6"/>
</svg>
